<?xml version="1.0" encoding="UTF-8" standalone="no"?>
<!-- Created with Inkscape (http://www.inkscape.org/) -->

<svg
   xmlns:dc="http://purl.org/dc/elements/1.1/"
   xmlns:cc="http://creativecommons.org/ns#"
   xmlns:rdf="http://www.w3.org/1999/02/22-rdf-syntax-ns#"
   xmlns:svg="http://www.w3.org/2000/svg"
   xmlns="http://www.w3.org/2000/svg"
   xmlns:sodipodi="http://sodipodi.sourceforge.net/DTD/sodipodi-0.dtd"
   xmlns:inkscape="http://www.inkscape.org/namespaces/inkscape"
   width="210mm"
   height="297mm"
   viewBox="0 0 210 297"
   version="1.1"
   id="svg8"
   inkscape:version="0.92.2 (5c3e80d, 2017-08-06)"
   sodipodi:docname="Symbols.svg"
   inkscape:export-filename="C:\Users\Kerstin\Documents\baka\TheFairestOfThemAll\Assets\Rendering\textures\adjustMode2.png"
   inkscape:export-xdpi="98"
   inkscape:export-ydpi="98">
  <defs
     id="defs2">
    <inkscape:perspective
       sodipodi:type="inkscape:persp3d"
       inkscape:vp_x="-852.94404 : 322.30179 : 1"
       inkscape:vp_y="6277.9896 : 4507.2294 : 0"
       inkscape:vp_z="176.60402 : -889.75354 : 1"
       inkscape:persp3d-origin="-648.93046 : -506.83371 : 1"
       id="perspective1015" />
    <inkscape:perspective
       sodipodi:type="inkscape:persp3d"
       inkscape:vp_x="0 : 148.5 : 1"
       inkscape:vp_y="0 : 1000 : 0"
       inkscape:vp_z="210 : 148.5 : 1"
       inkscape:persp3d-origin="105 : 99 : 1"
       id="perspective815" />
  </defs>
  <sodipodi:namedview
     id="base"
     pagecolor="#ffffff"
     bordercolor="#666666"
     borderopacity="1.0"
     inkscape:pageopacity="0.0"
     inkscape:pageshadow="2"
     inkscape:zoom="0.35"
     inkscape:cx="21.957883"
     inkscape:cy="505.44594"
     inkscape:document-units="mm"
     inkscape:current-layer="layer5"
     showgrid="false"
     inkscape:window-width="1600"
     inkscape:window-height="877"
     inkscape:window-x="-8"
     inkscape:window-y="-8"
     inkscape:window-maximized="1" />
  <metadata
     id="metadata5">
    <rdf:RDF>
      <cc:Work
         rdf:about="">
        <dc:format>image/svg+xml</dc:format>
        <dc:type
           rdf:resource="http://purl.org/dc/dcmitype/StillImage" />
        <dc:title></dc:title>
      </cc:Work>
    </rdf:RDF>
  </metadata>
  <g
     inkscape:groupmode="layer"
     id="layer3"
     inkscape:label="Layer 3"
     style="display:none">
    <path
       style="fill:#ffffff;fill-opacity:1;stroke:#000000;stroke-width:2.1899755;stroke-linecap:butt;stroke-linejoin:round;stroke-miterlimit:4;stroke-dasharray:none;stroke-opacity:1"
       d="M 27.385892,93.656235 26.640103,127.85243 C 18.059758,123.11019 15.35849,117.51499 21.16315,109.42419 v 0 c -11.16211,7.43196 -9.72655,18.95072 -5.727361,26.56696 7.674131,14.61498 33.760218,31.15938 48.99287,13.84764 l 0.102443,-41.85159 c -0.813954,23.5441 -21.25605,26.30619 -37.890997,19.86523 1.630253,0.42963 0,0 5.231235,1.87889 l 9.537105,-16.1249 z m -6.222742,15.767955 5.404219,-2.66187 z"
       id="path1086"
       inkscape:connector-curvature="0"
       sodipodi:nodetypes="ccccsccccccccc" />
  </g>
  <g
     inkscape:groupmode="layer"
     id="layer4"
     inkscape:label="Layer 4">
    <path
       style="fill:#ffffff;stroke:#000000;stroke-width:2.19000006;stroke-linecap:butt;stroke-linejoin:round;stroke-miterlimit:4;stroke-dasharray:none;stroke-opacity:1;fill-opacity:1"
       d="m 92.982144,153.36904 43.845226,0.75595 -15.87499,37.79762 21.92262,0.75596 -27.97025,24.19046 -33.261893,-23.43451 22.678573,-0.75597 z"
       id="path1108"
       inkscape:connector-curvature="0"
       sodipodi:nodetypes="cccccccc" />
  </g>
  <g
     inkscape:groupmode="layer"
     id="layer2"
     inkscape:label="Layer 2"
     style="display:inline">
    <g
       sodipodi:type="inkscape:box3d"
       id="g999"
       style="opacity:1;fill:#c8c8c8;fill-opacity:1;stroke:#000000;stroke-width:0.80000001;stroke-linecap:round;stroke-linejoin:round;stroke-miterlimit:4;stroke-dasharray:none;stroke-opacity:1;paint-order:normal"
       inkscape:perspectiveID="#perspective1015"
       inkscape:corner0="0.22918267 : 0.15462455 : 0 : 1"
       inkscape:corner7="0.15352957 : 0.14868323 : 0.066042436 : 1">
      <path
         sodipodi:type="inkscape:box3dside"
         id="path1001"
         style="fill:#c8c8c8;fill-opacity:1;fill-rule:evenodd;stroke:#000000;stroke-width:2.08799624;stroke-linejoin:round;stroke-miterlimit:4;stroke-dasharray:none;stroke-opacity:1"
         inkscape:box3dsidetype="6"
         d="m 102.76818,82.255201 -30.344997,21.785929 5.312093,55.2066 28.797734,-20.67509 z"
         points="72.423183,104.04113 77.735276,159.24773 106.53301,138.57264 102.76818,82.255201 " />
      <path
         sodipodi:type="inkscape:box3dside"
         id="path1011"
         style="fill:#c8c8c8;fill-opacity:1;fill-rule:evenodd;stroke:#000000;stroke-width:2.08799624;stroke-linejoin:round;stroke-miterlimit:4;stroke-dasharray:none;stroke-opacity:1"
         inkscape:box3dsidetype="11"
         d="m 106.53301,138.57264 59.51876,10.16554 -30.58413,21.95761 -57.732364,-11.44806 z"
         points="166.05177,148.73818 135.46764,170.69579 77.735276,159.24773 106.53301,138.57264 " />
      <path
         sodipodi:type="inkscape:box3dside"
         id="path1003"
         style="fill:#c8c8c8;fill-opacity:1;fill-rule:evenodd;stroke:#000000;stroke-width:2.08799624;stroke-linejoin:round;stroke-miterlimit:4;stroke-dasharray:none;stroke-opacity:1"
         inkscape:box3dsidetype="5"
         d="m 102.76818,82.255201 62.67945,7.054019 0.60414,59.42896 -59.51876,-10.16554 z"
         points="165.44763,89.30922 166.05177,148.73818 106.53301,138.57264 102.76818,82.255201 " />
      <path
         sodipodi:type="inkscape:box3dside"
         id="path1009"
         style="fill:#c8c8c8;fill-opacity:1;fill-rule:evenodd;stroke:#000000;stroke-width:2.08799624;stroke-linejoin:round;stroke-miterlimit:4;stroke-dasharray:none;stroke-opacity:1"
         inkscape:box3dsidetype="13"
         d="m 72.423183,104.04113 60.689297,8.48283 2.35516,58.17183 -57.732364,-11.44806 z"
         points="133.11248,112.52396 135.46764,170.69579 77.735276,159.24773 72.423183,104.04113 " />
      <path
         sodipodi:type="inkscape:box3dside"
         id="path1007"
         style="fill:#c8c8c8;fill-opacity:1;fill-rule:evenodd;stroke:#000000;stroke-width:2.08799624;stroke-linejoin:round;stroke-miterlimit:4;stroke-dasharray:none;stroke-opacity:1"
         inkscape:box3dsidetype="14"
         d="m 165.44763,89.30922 -32.33515,23.21474 2.35516,58.17183 30.58413,-21.95761 z"
         points="133.11248,112.52396 135.46764,170.69579 166.05177,148.73818 165.44763,89.30922 " />
      <path
         sodipodi:type="inkscape:box3dside"
         id="path1005"
         style="fill:#c8c8c8;fill-opacity:1;fill-rule:evenodd;stroke:#000000;stroke-width:2.08799624;stroke-linejoin:round;stroke-miterlimit:4;stroke-dasharray:none;stroke-opacity:1"
         inkscape:box3dsidetype="3"
         d="m 102.76818,82.255201 62.67945,7.054019 -32.33515,23.21474 -60.689297,-8.48283 z"
         points="165.44763,89.30922 133.11248,112.52396 72.423183,104.04113 102.76818,82.255201 " />
    </g>
    <path
       style="opacity:1;fill:#000000;fill-opacity:1;stroke:#000000;stroke-width:4.68393612;stroke-linecap:round;stroke-linejoin:round;stroke-miterlimit:4;stroke-dasharray:none;stroke-opacity:1;paint-order:normal"
       id="path1017"
       sodipodi:type="arc"
       sodipodi:cx="103.4607"
       sodipodi:cy="137.2231"
       sodipodi:rx="12.916396"
       sodipodi:ry="13.127254"
       sodipodi:start="6.1732121"
       sodipodi:end="6.1578532"
       sodipodi:open="true"
       d="m 116.29907,135.78236 a 12.916396,13.127254 0 0 1 -11.37149,14.48306 12.916396,13.127254 0 0 1 -14.293983,-11.50143 12.916396,13.127254 0 0 1 11.261713,-14.57138 12.916396,13.127254 0 0 1 14.38047,11.38953" />
  </g>
  <g
     inkscape:groupmode="layer"
     id="layer5"
     inkscape:label="Layer 5">
    <path
       style="fill:#ffffff;fill-opacity:1;stroke:#000000;stroke-width:2.19000006;stroke-linecap:butt;stroke-linejoin:round;stroke-miterlimit:4;stroke-dasharray:none;stroke-opacity:1"
       d="m 90.336288,97.428553 43.845222,-0.75595 -15.87499,-37.797621 21.92262,-0.75596 -27.97025,-24.19046 -33.261889,23.434511 22.678569,0.75597 z"
       id="path1108-0"
       inkscape:connector-curvature="0"
       sodipodi:nodetypes="cccccccc" />
  </g>
  <g
     inkscape:label="Layer 1"
     inkscape:groupmode="layer"
     id="layer1"
     style="display:none">
    <path
       style="opacity:1;fill:#ffffff;fill-opacity:1;stroke:#000000;stroke-width:2.4875617;stroke-linecap:round;stroke-linejoin:round;stroke-miterlimit:4;stroke-dasharray:none;stroke-opacity:1;paint-order:normal"
       d="m 139.02847,195.29393 -9.14785,-9.97611 -9.11517,-9.94048 -19.77317,19.10796 13.49478,-0.29415 c -12.96247,20.17251 -30.070569,1.5238 -23.440711,-15.93056 l -21.395517,-5.17236 c -10.256555,42.13395 50.859308,68.57573 57.009198,22.58099 z"
       id="rect831-9-2"
       inkscape:connector-curvature="0"
       sodipodi:nodetypes="ccccccccc" />
    <path
       style="opacity:1;fill:#ffffff;fill-opacity:1;stroke:#000000;stroke-width:2.4875617;stroke-linecap:round;stroke-linejoin:round;stroke-miterlimit:4;stroke-dasharray:none;stroke-opacity:1;paint-order:normal"
       d="m 65.99539,69.948888 9.147856,9.976114 9.115164,9.940472 19.77319,-19.107948 -13.494795,0.294141 C 103.49928,50.879168 120.60736,69.527868 113.9775,86.982228 l 21.39551,5.172357 C 145.6296,50.020642 84.513725,23.578853 78.363846,69.573591 Z"
       id="rect831-9-2-1"
       inkscape:connector-curvature="0"
       sodipodi:nodetypes="ccccccccc" />
    <path
       style="fill:#ffffff;fill-opacity:1;stroke:#000000;stroke-width:2.19000006;stroke-linecap:butt;stroke-linejoin:round;stroke-miterlimit:4;stroke-dasharray:none;stroke-opacity:1"
       d="m 191.32811,109.23244 0.74576,34.19619 c 8.58038,-4.74224 11.28164,-10.33745 5.47696,-18.42826 v 0 c 11.16211,7.43197 9.72656,18.95074 5.72737,26.56697 -7.67413,14.61498 -33.76021,31.15939 -48.99286,13.84764 l -0.10259,-41.85158 c 0.81395,23.54409 21.25607,26.30618 37.891,19.86523 -1.63026,0.42963 0,0 -5.23125,1.87888 l -9.53711,-16.1249 z m 6.22272,15.76793 -5.40422,-2.66185 z"
       id="path1086-2"
       inkscape:connector-curvature="0"
       sodipodi:nodetypes="ccccsccccccccc" />
  </g>
</svg>
