<?xml version="1.0" encoding="UTF-8" standalone="no"?>
<!-- Created with Inkscape (http://www.inkscape.org/) -->

<svg
   xmlns:dc="http://purl.org/dc/elements/1.1/"
   xmlns:cc="http://creativecommons.org/ns#"
   xmlns:rdf="http://www.w3.org/1999/02/22-rdf-syntax-ns#"
   xmlns:svg="http://www.w3.org/2000/svg"
   xmlns="http://www.w3.org/2000/svg"
   xmlns:sodipodi="http://sodipodi.sourceforge.net/DTD/sodipodi-0.dtd"
   xmlns:inkscape="http://www.inkscape.org/namespaces/inkscape"
   width="210mm"
   height="297mm"
   viewBox="0 0 210 297"
   version="1.1"
   id="svg8"
   inkscape:version="0.92.2 (5c3e80d, 2017-08-06)"
   sodipodi:docname="Symbols.svg"
   inkscape:export-filename="C:\Users\Kerstin\Documents\baka\TheFairestOfThemAll\Assets\Rendering\textures\hints\adjustMode.png"
   inkscape:export-xdpi="98"
   inkscape:export-ydpi="98">
  <defs
     id="defs2">
    <inkscape:perspective
       sodipodi:type="inkscape:persp3d"
       inkscape:vp_x="-852.94404 : 322.30179 : 1"
       inkscape:vp_y="6277.9896 : 4507.2294 : 0"
       inkscape:vp_z="176.60402 : -889.75354 : 1"
       inkscape:persp3d-origin="-648.93046 : -506.83371 : 1"
       id="perspective1015" />
    <inkscape:perspective
       sodipodi:type="inkscape:persp3d"
       inkscape:vp_x="0 : 148.5 : 1"
       inkscape:vp_y="0 : 1000 : 0"
       inkscape:vp_z="210 : 148.5 : 1"
       inkscape:persp3d-origin="105 : 99 : 1"
       id="perspective815" />
  </defs>
  <sodipodi:namedview
     id="base"
     pagecolor="#ffffff"
     bordercolor="#666666"
     borderopacity="1.0"
     inkscape:pageopacity="0.0"
     inkscape:pageshadow="2"
     inkscape:zoom="0.35"
     inkscape:cx="-453.7564"
     inkscape:cy="505.44594"
     inkscape:document-units="mm"
     inkscape:current-layer="layer3"
     showgrid="false"
     inkscape:window-width="1600"
     inkscape:window-height="877"
     inkscape:window-x="-8"
     inkscape:window-y="-8"
     inkscape:window-maximized="1" />
  <metadata
     id="metadata5">
    <rdf:RDF>
      <cc:Work
         rdf:about="">
        <dc:format>image/svg+xml</dc:format>
        <dc:type
           rdf:resource="http://purl.org/dc/dcmitype/StillImage" />
        <dc:title />
      </cc:Work>
    </rdf:RDF>
  </metadata>
  <g
     inkscape:groupmode="layer"
     id="layer3"
     inkscape:label="Layer 3"
     style="display:inline">
    <path
       style="fill:#ffffff;fill-opacity:1;stroke:#000000;stroke-width:2.1899755;stroke-linecap:butt;stroke-linejoin:round;stroke-miterlimit:4;stroke-dasharray:none;stroke-opacity:1"
       d="m 29.503676,96.858927 2.263038,34.129373 c -8.963987,-3.96964 -12.146632,-9.30574 -7.075645,-17.87546 v 0 c -10.465613,8.38437 -8.023079,19.73235 -3.369882,26.96757 8.929123,13.88383 36.36853,28.07115 50.020468,9.48743 l -3.576824,-41.69859 c 1.258788,23.52451 -18.861383,28.07282 -35.998115,23.11905 1.661708,0.28467 0,0 5.376145,1.41178 l 8.082764,-16.90082 z m -4.812607,16.253913 5.149314,-3.12661 z"
       id="path1086"
       inkscape:connector-curvature="0"
       sodipodi:nodetypes="ccccsccccccccc" />
  </g>
  <g
     inkscape:groupmode="layer"
     id="layer4"
     inkscape:label="Layer 4"
     style="display:none">
    <path
       style="fill:#ffffff;fill-opacity:1;stroke:#000000;stroke-width:2.19000006;stroke-linecap:butt;stroke-linejoin:round;stroke-miterlimit:4;stroke-dasharray:none;stroke-opacity:1"
       d="m 92.982144,153.36904 43.845226,0.75595 -15.87499,37.79762 21.92262,0.75596 -27.97025,24.19046 -33.261893,-23.43451 22.678573,-0.75597 z"
       id="path1108"
       inkscape:connector-curvature="0"
       sodipodi:nodetypes="cccccccc" />
  </g>
  <g
     inkscape:groupmode="layer"
     id="layer2"
     inkscape:label="Layer 2"
     style="display:inline">
    <g
       sodipodi:type="inkscape:box3d"
       id="g999"
       style="opacity:1;fill:#c8c8c8;fill-opacity:1;stroke:#000000;stroke-width:0.80000001;stroke-linecap:round;stroke-linejoin:round;stroke-miterlimit:4;stroke-dasharray:none;stroke-opacity:1;paint-order:normal"
       inkscape:perspectiveID="#perspective1015"
       inkscape:corner0="0.22918267 : 0.15462455 : 0 : 1"
       inkscape:corner7="0.15352957 : 0.14868323 : 0.066042436 : 1">
      <path
         sodipodi:type="inkscape:box3dside"
         id="path1001"
         style="fill:#c8c8c8;fill-opacity:1;fill-rule:evenodd;stroke:#000000;stroke-width:2.08799624;stroke-linejoin:round;stroke-miterlimit:4;stroke-dasharray:none;stroke-opacity:1"
         inkscape:box3dsidetype="6"
         d="m 102.76818,82.255201 -30.344997,21.785929 5.312093,55.2066 28.797734,-20.67509 z"
         points="72.423183,104.04113 77.735276,159.24773 106.53301,138.57264 102.76818,82.255201 " />
      <path
         sodipodi:type="inkscape:box3dside"
         id="path1011"
         style="fill:#c8c8c8;fill-opacity:1;fill-rule:evenodd;stroke:#000000;stroke-width:2.08799624;stroke-linejoin:round;stroke-miterlimit:4;stroke-dasharray:none;stroke-opacity:1"
         inkscape:box3dsidetype="11"
         d="m 106.53301,138.57264 59.51876,10.16554 -30.58413,21.95761 -57.732364,-11.44806 z"
         points="166.05177,148.73818 135.46764,170.69579 77.735276,159.24773 106.53301,138.57264 " />
      <path
         sodipodi:type="inkscape:box3dside"
         id="path1003"
         style="fill:#c8c8c8;fill-opacity:1;fill-rule:evenodd;stroke:#000000;stroke-width:2.08799624;stroke-linejoin:round;stroke-miterlimit:4;stroke-dasharray:none;stroke-opacity:1"
         inkscape:box3dsidetype="5"
         d="m 102.76818,82.255201 62.67945,7.054019 0.60414,59.42896 -59.51876,-10.16554 z"
         points="165.44763,89.30922 166.05177,148.73818 106.53301,138.57264 102.76818,82.255201 " />
      <path
         sodipodi:type="inkscape:box3dside"
         id="path1009"
         style="fill:#c8c8c8;fill-opacity:1;fill-rule:evenodd;stroke:#000000;stroke-width:2.08799624;stroke-linejoin:round;stroke-miterlimit:4;stroke-dasharray:none;stroke-opacity:1"
         inkscape:box3dsidetype="13"
         d="m 72.423183,104.04113 60.689297,8.48283 2.35516,58.17183 -57.732364,-11.44806 z"
         points="133.11248,112.52396 135.46764,170.69579 77.735276,159.24773 72.423183,104.04113 " />
      <path
         sodipodi:type="inkscape:box3dside"
         id="path1007"
         style="fill:#c8c8c8;fill-opacity:1;fill-rule:evenodd;stroke:#000000;stroke-width:2.08799624;stroke-linejoin:round;stroke-miterlimit:4;stroke-dasharray:none;stroke-opacity:1"
         inkscape:box3dsidetype="14"
         d="m 165.44763,89.30922 -32.33515,23.21474 2.35516,58.17183 30.58413,-21.95761 z"
         points="133.11248,112.52396 135.46764,170.69579 166.05177,148.73818 165.44763,89.30922 " />
      <path
         sodipodi:type="inkscape:box3dside"
         id="path1005"
         style="fill:#c8c8c8;fill-opacity:1;fill-rule:evenodd;stroke:#000000;stroke-width:2.08799624;stroke-linejoin:round;stroke-miterlimit:4;stroke-dasharray:none;stroke-opacity:1"
         inkscape:box3dsidetype="3"
         d="m 102.76818,82.255201 62.67945,7.054019 -32.33515,23.21474 -60.689297,-8.48283 z"
         points="165.44763,89.30922 133.11248,112.52396 72.423183,104.04113 102.76818,82.255201 " />
    </g>
    <path
       style="opacity:1;fill:#000000;fill-opacity:1;stroke:#000000;stroke-width:4.68393612;stroke-linecap:round;stroke-linejoin:round;stroke-miterlimit:4;stroke-dasharray:none;stroke-opacity:1;paint-order:normal"
       id="path1017"
       sodipodi:type="arc"
       sodipodi:cx="103.4607"
       sodipodi:cy="137.2231"
       sodipodi:rx="12.916396"
       sodipodi:ry="13.127254"
       sodipodi:start="6.1732121"
       sodipodi:end="6.1578532"
       sodipodi:open="true"
       d="m 116.29907,135.78236 a 12.916396,13.127254 0 0 1 -11.37149,14.48306 12.916396,13.127254 0 0 1 -14.293983,-11.50143 12.916396,13.127254 0 0 1 11.261713,-14.57138 12.916396,13.127254 0 0 1 14.38047,11.38953" />
  </g>
  <g
     inkscape:groupmode="layer"
     id="layer5"
     inkscape:label="Layer 5"
     style="display:none">
    <path
       style="fill:#ffffff;fill-opacity:1;stroke:#000000;stroke-width:2.19000006;stroke-linecap:butt;stroke-linejoin:round;stroke-miterlimit:4;stroke-dasharray:none;stroke-opacity:1"
       d="m 90.336288,97.428553 43.845222,-0.75595 -15.87499,-37.797621 21.92262,-0.75596 -27.97025,-24.19046 -33.261889,23.434511 22.678569,0.75597 z"
       id="path1108-0"
       inkscape:connector-curvature="0"
       sodipodi:nodetypes="cccccccc" />
  </g>
  <g
     inkscape:label="Layer 1"
     inkscape:groupmode="layer"
     id="layer1"
     style="display:inline">
    <path
       style="opacity:1;fill:#ffffff;fill-opacity:1;stroke:#000000;stroke-width:2.4875617;stroke-linecap:round;stroke-linejoin:round;stroke-miterlimit:4;stroke-dasharray:none;stroke-opacity:1;paint-order:normal"
       d="m 139.02847,185.46655 -9.14785,-9.97611 -9.11517,-9.94048 -19.77317,19.10796 13.49478,-0.29415 c -12.96247,20.17251 -30.070569,1.5238 -23.440711,-15.93056 l -21.395517,-5.17236 c -10.256555,42.13395 50.859308,68.57573 57.009198,22.58099 z"
       id="rect831-9-2"
       inkscape:connector-curvature="0"
       sodipodi:nodetypes="ccccccccc" />
    <path
       style="opacity:1;fill:#ffffff;fill-opacity:1;stroke:#000000;stroke-width:2.4875617;stroke-linecap:round;stroke-linejoin:round;stroke-miterlimit:4;stroke-dasharray:none;stroke-opacity:1;paint-order:normal"
       d="m 145.54857,91.355467 -11.26754,7.49992 -11.22726,7.473133 -14.63183,-23.280957 13.03318,3.511733 C 113.69102,63.87286 92.62078,77.890893 94.88569,96.424107 l -22.011649,-0.0925 C 72.987564,52.967385 138.6526,41.902914 133.62847,88.034195 Z"
       id="rect831-9-2-1"
       inkscape:connector-curvature="0"
       sodipodi:nodetypes="ccccccccc" />
  </g>
  <g
     inkscape:groupmode="layer"
     id="layer6"
     inkscape:label="Layer 6"
     style="display:inline">
    <path
       style="display:inline;fill:#ffffff;fill-opacity:1;stroke:#000000;stroke-width:2.19000006;stroke-linecap:butt;stroke-linejoin:round;stroke-miterlimit:4;stroke-dasharray:none;stroke-opacity:1"
       d="m 178.9488,102.69013 0.74576,34.19619 c 8.58039,-4.74224 11.28164,-10.33745 5.47697,-18.42826 v 0 c 11.16211,7.43197 9.72656,18.95074 5.72737,26.56697 -7.67414,14.61498 -33.76022,31.15939 -48.99287,13.84764 l -0.10259,-41.85158 c 0.81395,23.54409 21.25607,26.30618 37.891,19.86523 -1.63025,0.42963 0,0 -5.23124,1.87888 l -9.53712,-16.1249 z m 6.22273,15.76793 -5.40422,-2.66185 z"
       id="path1086-2"
       inkscape:connector-curvature="0"
       sodipodi:nodetypes="ccccsccccccccc" />
  </g>
  <g
     inkscape:groupmode="layer"
     id="layer7"
     inkscape:label="Layer 7"
     style="display:none">
    <path
       style="display:inline;fill:#ffffff;fill-opacity:1;stroke:#000000;stroke-width:2.03757381;stroke-linecap:butt;stroke-linejoin:round;stroke-miterlimit:4;stroke-dasharray:none;stroke-opacity:1"
       d="m 122.26161,209.1157 -29.547422,-3.67196 c 2.422154,9.00076 6.712021,12.36233 14.788812,7.72751 v 0 c -8.543931,9.95844 -18.17136,7.07215 -23.948573,2.18126 -11.08606,-9.38522 -20.278831,-37.02308 -2.454436,-49.69036 l 36.005809,5.28618 c -20.401389,-2.23431 -26.720373,17.3997 -24.39159,34.4953 -0.05488,-1.64945 0,0 -0.606263,-5.35724 l 15.705013,-7.25061 z m -14.75861,4.05555 3.33146,-4.94198 z"
       id="path1086-2-3"
       inkscape:connector-curvature="0"
       sodipodi:nodetypes="ccccsccccccccc" />
    <path
       style="display:inline;fill:#ffffff;fill-opacity:1;stroke:#000000;stroke-width:2.03757381;stroke-linecap:butt;stroke-linejoin:round;stroke-miterlimit:4;stroke-dasharray:none;stroke-opacity:1"
       d="m 141.74267,63.921396 -29.10679,-6.27128 c 5.25325,-7.6996 10.41133,-9.45953 16.50935,-2.42175 v 0 c -4.78453,-12.21792 -14.82531,-12.66585 -21.89166,-9.95224 -13.559813,5.20718 -31.347723,28.27119 -18.694003,46.10521 l 35.736333,6.87578 c -19.99792,-4.61431 -19.49298,-25.23394 -11.66003,-40.60689 -0.59544,1.53921 0,0 -2.338,4.85812 l 12.43795,12.02149 z m -12.59744,-8.69303 1.51657,5.76383 z"
       id="path1086-2-3-9"
       inkscape:connector-curvature="0"
       sodipodi:nodetypes="ccccsccccccccc" />
  </g>
</svg>
