<?xml version="1.0" encoding="UTF-8" standalone="no"?>
<!-- Created with Inkscape (http://www.inkscape.org/) -->

<svg
   xmlns:dc="http://purl.org/dc/elements/1.1/"
   xmlns:cc="http://creativecommons.org/ns#"
   xmlns:rdf="http://www.w3.org/1999/02/22-rdf-syntax-ns#"
   xmlns:svg="http://www.w3.org/2000/svg"
   xmlns="http://www.w3.org/2000/svg"
   xmlns:sodipodi="http://sodipodi.sourceforge.net/DTD/sodipodi-0.dtd"
   xmlns:inkscape="http://www.inkscape.org/namespaces/inkscape"
   width="1024"
   height="1024"
   viewBox="0 0 270.93333 270.93334"
   version="1.1"
   id="svg8"
   sodipodi:docname="tree.svg"
   inkscape:version="0.92.2 (5c3e80d, 2017-08-06)"
   inkscape:export-filename="C:\Users\Kerstin\Documents\baka\tree.png"
   inkscape:export-xdpi="98"
   inkscape:export-ydpi="98">
  <defs
     id="defs2" />
  <sodipodi:namedview
     id="base"
     pagecolor="#ffffff"
     bordercolor="#666666"
     borderopacity="1.0"
     inkscape:pageopacity="0.0"
     inkscape:pageshadow="2"
     inkscape:zoom="0.35"
     inkscape:cx="-75.714286"
     inkscape:cy="560"
     inkscape:document-units="mm"
     inkscape:current-layer="layer2"
     showgrid="false"
     units="px"
     inkscape:window-width="1600"
     inkscape:window-height="877"
     inkscape:window-x="-8"
     inkscape:window-y="-8"
     inkscape:window-maximized="1" />
  <metadata
     id="metadata5">
    <rdf:RDF>
      <cc:Work
         rdf:about="">
        <dc:format>image/svg+xml</dc:format>
        <dc:type
           rdf:resource="http://purl.org/dc/dcmitype/StillImage" />
        <dc:title></dc:title>
      </cc:Work>
    </rdf:RDF>
  </metadata>
  <g
     inkscape:label="Layer 1"
     inkscape:groupmode="layer"
     id="layer1"
     transform="translate(0,-26.06665)">
    <path
       style="fill:#000000;fill-opacity:1;stroke:#000000;stroke-width:3.65904617;stroke-linecap:butt;stroke-linejoin:round;stroke-miterlimit:4;stroke-dasharray:none;stroke-opacity:1"
       d="m 92.166925,293.17319 c 24.177315,-33.77124 41.305645,-69.55648 22.500945,-115.6083 -10.68364,-26.75267 -40.832285,-30.75372 -58.1921,-65.95105 43.450103,41.5172 65.17515,46.55368 65.17515,46.55368 26.84052,-54.88993 3.13893,-59.747732 9.31074,-81.468935 9.19791,32.192665 15.51759,50.044135 9.31073,73.709995 -8.13012,30.99893 27.15632,-11.63843 27.15632,-11.63843 17.14223,-17.41139 26.72357,-17.18069 38.01884,-20.94916 -44.46229,35.8232 -43.0399,40.60028 -51.98495,59.7439 -15.78808,83.9696 12.60558,88.26569 22.50095,112.50472 -30.34603,-5.00004 -57.5619,-2.17467 -83.796625,3.10358 z"
       id="path815"
       inkscape:connector-curvature="0"
       sodipodi:nodetypes="cccccsccccc" />
    <path
       style="fill:#000000;fill-opacity:1;stroke:#000000;stroke-width:1.2983712;stroke-linecap:butt;stroke-linejoin:round;stroke-miterlimit:4;stroke-dasharray:none;stroke-opacity:1"
       d="m 23.112299,161.2711 c 14.538735,-1.05273 71.206956,1.15317 81.468941,8.53484 30.61309,32.87294 4.88638,-26.48777 -2.32768,-51.20906 C 93.256098,99.948089 75.431576,91.919994 55.699876,82.905743 c 7.766218,13.048652 18.280576,9.609694 31.035787,28.708097 16.301977,35.6249 4.565915,44.09837 -13.966104,42.67422 -36.875706,-24.26628 -33.668169,-24.31921 -50.433154,-45.7778 10.591691,14.67581 7.999406,27.70363 33.363471,44.22599 -16.218917,2.12125 -21.66088,6.29637 -32.587577,8.53485 z"
       id="path817"
       inkscape:connector-curvature="0"
       sodipodi:nodetypes="ccccccccc" />
    <path
       style="fill:#000000;fill-opacity:1;stroke:#000000;stroke-width:2.32475162;stroke-linecap:butt;stroke-linejoin:round;stroke-miterlimit:4;stroke-dasharray:none;stroke-opacity:1"
       d="m 189.15376,59.628902 c 1.12413,-0.674478 -23.65029,4.413897 -17.84558,59.743878 5.46014,52.04559 56.64032,53.53674 56.64032,53.53674 0,0 3.10356,3.87946 -26.38042,-18.62147 -29.484,-22.50095 59.74388,5.43125 59.74388,5.43125 0,0 -12.29834,-21.36235 -56.6403,-22.50093 -44.22862,-1.13568 -22.47812,-77.367673 -15.5179,-77.589468 z"
       id="path819"
       inkscape:connector-curvature="0"
       sodipodi:nodetypes="cscscsc" />
    <path
       style="fill:#000000;fill-opacity:1;stroke:#000000;stroke-width:2.42738962;stroke-linecap:butt;stroke-linejoin:round;stroke-miterlimit:4;stroke-dasharray:none;stroke-opacity:1"
       d="M 84.40798,68.163742 C 132.10082,175.03798 156.0514,123.89759 205.44755,82.905741 156.0403,103.45172 127.4391,174.00775 110.7884,44.886903 c 3.59919,58.857707 6.89127,84.804137 -26.38042,23.276839 z"
       id="path821"
       inkscape:connector-curvature="0"
       sodipodi:nodetypes="cccc" />
  </g>
  <g
     inkscape:groupmode="layer"
     id="layer2"
     inkscape:label="Layer 2">
    <path
       style="opacity:1;fill:#000000;fill-opacity:1;stroke:#000000;stroke-width:2.4583118;stroke-linecap:round;stroke-linejoin:round;stroke-miterlimit:4;stroke-dasharray:none;stroke-opacity:1;paint-order:normal"
       id="path824"
       sodipodi:type="arc"
       sodipodi:cx="20.849197"
       sodipodi:cy="150.3344"
       sodipodi:rx="13.058736"
       sodipodi:ry="11.959509"
       sodipodi:start="6.1732121"
       sodipodi:end="6.1578532"
       sodipodi:open="true"
       d="M 33.829046,149.02182 A 13.058736,11.959509 0 0 1 22.332244,162.21653 13.058736,11.959509 0 0 1 7.8807378,151.73822 13.058736,11.959509 0 0 1 19.266561,138.46304 13.058736,11.959509 0 0 1 33.805503,148.83941" />
    <path
       style="opacity:1;fill:#000000;fill-opacity:1;stroke:#000000;stroke-width:1.65180469;stroke-linecap:round;stroke-linejoin:round;stroke-miterlimit:4;stroke-dasharray:none;stroke-opacity:1;paint-order:normal"
       id="path824-4"
       sodipodi:type="arc"
       sodipodi:cx="15.838333"
       sodipodi:cy="94.410316"
       sodipodi:rx="8.7745094"
       sodipodi:ry="8.0359097"
       sodipodi:start="6.1732121"
       sodipodi:end="6.1578532"
       sodipodi:open="true"
       d="m 24.559836,93.528362 a 8.7745094,8.0359097 0 0 1 -7.725005,8.865878 8.7745094,8.0359097 0 0 1 -9.7103483,-7.040657 8.7745094,8.0359097 0 0 1 7.6504353,-8.919942 8.7745094,8.0359097 0 0 1 9.769099,6.972153" />
    <path
       style="opacity:1;fill:#000000;fill-opacity:1;stroke:#000000;stroke-width:1.26803148;stroke-linecap:round;stroke-linejoin:round;stroke-miterlimit:4;stroke-dasharray:none;stroke-opacity:1;paint-order:normal"
       id="path824-4-8"
       sodipodi:type="arc"
       sodipodi:cx="46.777107"
       sodipodi:cy="79.519066"
       sodipodi:rx="6.735877"
       sodipodi:ry="6.1688809"
       sodipodi:start="6.1732121"
       sodipodi:end="6.1578532"
       sodipodi:open="true"
       d="m 53.472293,78.842021 a 6.735877,6.1688809 0 0 1 -5.93021,6.806015 6.735877,6.1688809 0 0 1 -7.454287,-5.404858 6.735877,6.1688809 0 0 1 5.872965,-6.847521 6.735877,6.1688809 0 0 1 7.499388,5.352273" />
    <path
       style="opacity:1;fill:#000000;fill-opacity:1;stroke:#000000;stroke-width:2.26919007;stroke-linecap:round;stroke-linejoin:round;stroke-miterlimit:4;stroke-dasharray:none;stroke-opacity:1;paint-order:normal"
       id="path824-4-8-3"
       sodipodi:type="arc"
       sodipodi:cx="38.630222"
       sodipodi:cy="49.318981"
       sodipodi:rx="12.054105"
       sodipodi:ry="11.039444"
       sodipodi:start="6.1732121"
       sodipodi:end="6.1578532"
       sodipodi:open="true"
       d="M 50.611509,48.107384 A 12.054105,11.039444 0 0 1 39.999175,60.287003 12.054105,11.039444 0 0 1 26.659449,50.614807 12.054105,11.039444 0 0 1 37.16934,38.36091 12.054105,11.039444 0 0 1 50.589777,47.939004" />
    <path
       style="opacity:1;fill:#000000;fill-opacity:1;stroke:#000000;stroke-width:1.93547058;stroke-linecap:round;stroke-linejoin:round;stroke-miterlimit:4;stroke-dasharray:none;stroke-opacity:1;paint-order:normal"
       id="path824-4-8-3-3"
       sodipodi:type="arc"
       sodipodi:cx="73.933434"
       sodipodi:cy="32.308903"
       sodipodi:rx="10.281363"
       sodipodi:ry="9.4159231"
       sodipodi:start="6.1732121"
       sodipodi:end="6.1578532"
       sodipodi:open="true"
       d="m 84.152687,31.275489 a 10.281363,9.4159231 0 0 1 -9.051626,10.388419 10.281363,9.4159231 0 0 1 -11.377914,-8.249751 10.281363,9.4159231 0 0 1 8.96425,-10.451771 10.281363,9.4159231 0 0 1 11.446754,8.169486" />
    <path
       style="opacity:1;fill:#000000;fill-opacity:1;stroke:#000000;stroke-width:1.07334626;stroke-linecap:round;stroke-linejoin:round;stroke-miterlimit:4;stroke-dasharray:none;stroke-opacity:1;paint-order:normal"
       id="path824-4-8-3-3-2"
       sodipodi:type="arc"
       sodipodi:cx="111.68073"
       sodipodi:cy="9.9883604"
       sodipodi:rx="5.701695"
       sodipodi:ry="5.2217507"
       sodipodi:start="6.1732121"
       sodipodi:end="6.1578532"
       sodipodi:open="true"
       d="m 117.34798,9.4152645 a 5.701695,5.2217507 0 0 1 -5.01972,5.7610635 5.701695,5.2217507 0 0 1 -6.30981,-4.575031 5.701695,5.2217507 0 0 1 4.97127,-5.7961971 5.701695,5.2217507 0 0 1 6.34798,4.5305195" />
    <path
       style="opacity:1;fill:#000000;fill-opacity:1;stroke:#000000;stroke-width:3.79877043;stroke-linecap:round;stroke-linejoin:round;stroke-miterlimit:4;stroke-dasharray:none;stroke-opacity:1;paint-order:normal"
       id="path824-4-8-3-3-4"
       sodipodi:type="arc"
       sodipodi:cx="142.95592"
       sodipodi:cy="29.11581"
       sodipodi:rx="20.17935"
       sodipodi:ry="18.480742"
       sodipodi:start="6.1732121"
       sodipodi:end="6.1578532"
       sodipodi:open="true"
       d="M 163.01336,27.087518 A 20.17935,18.480742 0 0 1 145.24763,47.476987 20.17935,18.480742 0 0 1 122.91607,31.285106 20.17935,18.480742 0 0 1 140.51031,10.771293 20.17935,18.480742 0 0 1 162.97698,26.805639" />
    <path
       style="opacity:1;fill:#000000;fill-opacity:1;stroke:#000000;stroke-width:2.09121203;stroke-linecap:round;stroke-linejoin:round;stroke-miterlimit:4;stroke-dasharray:none;stroke-opacity:1;paint-order:normal"
       id="path824-4-8-3-3-9"
       sodipodi:type="arc"
       sodipodi:cx="203.63719"
       sodipodi:cy="26.161444"
       sodipodi:rx="11.108673"
       sodipodi:ry="10.173594"
       sodipodi:start="6.1732121"
       sodipodi:end="6.1578532"
       sodipodi:open="true"
       d="m 214.67876,25.044875 a 11.108673,10.173594 0 0 1 -9.77999,11.224343 11.108673,10.173594 0 0 1 -12.29346,-8.913583 11.108673,10.173594 0 0 1 9.68558,-11.292795 11.108673,10.173594 0 0 1 12.36784,8.826861" />
    <path
       style="opacity:1;fill:#000000;fill-opacity:1;stroke:#000000;stroke-width:0.98991203;stroke-linecap:round;stroke-linejoin:round;stroke-miterlimit:4;stroke-dasharray:none;stroke-opacity:1;paint-order:normal"
       id="path824-4-8-3-3-1"
       sodipodi:type="arc"
       sodipodi:cx="214.56429"
       sodipodi:cy="56.719711"
       sodipodi:rx="5.2584863"
       sodipodi:ry="4.8158503"
       sodipodi:start="6.1732121"
       sodipodi:end="6.1578532"
       sodipodi:open="true"
       d="m 219.79101,56.191164 a 5.2584863,4.8158503 0 0 1 -4.62953,5.31324 5.2584863,4.8158503 0 0 1 -5.81933,-4.219401 5.2584863,4.8158503 0 0 1 4.58484,-5.345644 5.2584863,4.8158503 0 0 1 5.85454,4.178351" />
    <path
       style="opacity:1;fill:#000000;fill-opacity:1;stroke:#000000;stroke-width:2.96446323;stroke-linecap:round;stroke-linejoin:round;stroke-miterlimit:4;stroke-dasharray:none;stroke-opacity:1;paint-order:normal"
       id="path824-4-8-3-3-0"
       sodipodi:type="arc"
       sodipodi:cx="225.78262"
       sodipodi:cy="82.055717"
       sodipodi:rx="15.747448"
       sodipodi:ry="14.421897"
       sodipodi:start="6.1732121"
       sodipodi:end="6.1578532"
       sodipodi:open="true"
       d="M 241.43494,80.47289 A 15.747448,14.421897 0 0 1 227.57102,96.384309 15.747448,14.421897 0 0 1 210.14404,83.74858 15.747448,14.421897 0 0 1 223.87413,67.740126 15.747448,14.421897 0 0 1 241.40655,80.252919" />
    <path
       style="opacity:1;fill:#000000;fill-opacity:1;stroke:#000000;stroke-width:1.13454366;stroke-linecap:round;stroke-linejoin:round;stroke-miterlimit:4;stroke-dasharray:none;stroke-opacity:1;paint-order:normal"
       id="path824-4-8-3-3-6"
       sodipodi:type="arc"
       sodipodi:cx="252.38918"
       sodipodi:cy="142.06822"
       sodipodi:rx="6.0267801"
       sodipodi:ry="5.5194726"
       sodipodi:start="6.1732121"
       sodipodi:end="6.1578532"
       sodipodi:open="true"
       d="m 258.37955,141.46245 a 6.0267801,5.5194726 0 0 1 -5.30593,6.08954 6.0267801,5.5194726 0 0 1 -6.66956,-4.83588 6.0267801,5.5194726 0 0 1 5.25471,-6.12668 6.0267801,5.5194726 0 0 1 6.70991,4.78883" />
    <path
       style="opacity:1;fill:#000000;fill-opacity:1;stroke:#000000;stroke-width:1.06779981;stroke-linecap:round;stroke-linejoin:round;stroke-miterlimit:4;stroke-dasharray:none;stroke-opacity:1;paint-order:normal"
       id="path824-4-8-3-3-98"
       sodipodi:type="arc"
       sodipodi:cx="225.62082"
       sodipodi:cy="157.22803"
       sodipodi:rx="5.6722317"
       sodipodi:ry="5.194768"
       sodipodi:start="6.1732121"
       sodipodi:end="6.1578532"
       sodipodi:open="true"
       d="m 231.25879,156.65789 a 5.6722317,5.194768 0 0 1 -4.99379,5.7313 5.6722317,5.194768 0 0 1 -6.2772,-4.55139 5.6722317,5.194768 0 0 1 4.94558,-5.76625 5.6722317,5.194768 0 0 1 6.31518,4.50711" />
  </g>
</svg>
